0
SECTION
2
ENTITIES
0
LINE
8
0
10
-180.0329
20
58.496243
30
-338.3638
11
180.0329
21
58.496243
31
-338.3638
0
LINE
8
0
10
-180.0329
20
-58.496243
30
-527.66156
11
180.0329
21
-58.496243
31
-527.66156
0
LINE
8
0
10
180.0329
20
58.496243
30
-338.3638
11
-111.26646
21
-153.14511
31
-338.3638
0
LINE
8
0
10
180.0329
20
-58.496243
30
-527.66156
11
-111.26646
21
153.14511
31
-527.66156
0
LINE
8
0
10
-111.26646
20
-153.14511
30
-338.3638
11
0.0
21
189.2978
31
-338.3638
0
LINE
8
0
10
-111.26646
20
153.14511
30
-527.66156
11
0.0
21
-189.2978
31
-527.66156
0
LINE
8
0
10
0.0
20
189.2978
30
-338.3638
11
111.26646
21
-153.14511
31
-338.3638
0
LINE
8
0
10
0.0
20
-189.2978
30
-527.66156
11
111.26646
21
153.14511
31
-527.66156
0
LINE
8
0
10
111.26646
20
-153.14511
30
-338.3638
11
-180.0329
21
58.496243
31
-338.3638
0
LINE
8
0
10
111.26646
20
153.14511
30
-527.66156
11
-180.0329
21
-58.496243
31
-527.66156
0
LINE
8
0
10
180.03288
20
58.496243
30
-338.3638
11
-180.03291
21
58.496216
31
-338.3638
0
LINE
8
0
10
180.03291
20
-58.496216
30
-527.66156
11
-180.03288
21
-58.496243
31
-527.6616
0
LINE
8
0
10
-180.03291
20
58.496216
30
-338.3638
11
111.26645
21
153.14511
31
-527.6616
0
LINE
8
0
10
-180.03288
20
-58.496243
30
-527.6616
11
111.266464
21
-153.1451
31
-338.3638
0
LINE
8
0
10
111.26645
20
153.14511
30
-527.6616
11
-8.274468E-6
21
0.0
31
-221.37132
0
LINE
8
0
10
111.266464
20
-153.1451
30
-338.3638
11
8.274468E-6
21
0.0
31
-644.65405
0
LINE
8
0
10
-8.274468E-6
20
0.0
30
-221.37132
11
-111.266464
21
153.1451
31
-527.6616
0
LINE
8
0
10
8.274468E-6
20
0.0
30
-644.65405
11
-111.26645
21
-153.14511
31
-338.3638
0
LINE
8
0
10
-111.266464
20
153.1451
30
-527.6616
11
180.03288
21
58.496243
31
-338.3638
0
LINE
8
0
10
-111.26645
20
-153.14511
30
-338.3638
11
180.03291
21
-58.496216
31
-527.66156
0
LINE
8
0
10
-7.6293945E-6
20
189.29779
30
-338.3638
11
-111.266426
21
-153.14514
31
-338.3638
0
LINE
8
0
10
111.266426
20
153.14514
30
-527.66156
11
7.6293945E-6
21
-189.29779
31
-527.6616
0
LINE
8
0
10
-111.266426
20
-153.14514
30
-338.3638
11
-111.26643
21
153.14513
31
-527.6616
0
LINE
8
0
10
7.6293945E-6
20
-189.29779
30
-527.6616
11
180.03287
21
58.49626
31
-338.3638
0
LINE
8
0
10
-111.26643
20
153.14513
30
-527.6616
11
7.6293945E-6
21
-7.6293945E-6
31
-221.37132
0
LINE
8
0
10
180.03287
20
58.49626
30
-338.3638
11
-7.6293945E-6
21
7.6293945E-6
31
-644.65405
0
LINE
8
0
10
7.6293945E-6
20
-7.6293945E-6
30
-221.37132
11
-180.03287
21
-58.49626
31
-527.6616
0
LINE
8
0
10
-7.6293945E-6
20
7.6293945E-6
30
-644.65405
11
111.26643
21
-153.14513
31
-338.3638
0
LINE
8
0
10
-180.03287
20
-58.49626
30
-527.6616
11
-7.6293945E-6
21
189.29779
31
-338.3638
0
LINE
8
0
10
111.26643
20
-153.14513
30
-338.3638
11
111.266426
21
153.14514
31
-527.66156
0
LINE
8
0
10
-180.03291
20
58.4962
30
-338.3638
11
111.266495
21
-153.14511
31
-338.3638
0
LINE
8
0
10
-111.266495
20
153.14511
30
-527.66156
11
180.03291
21
-58.4962
31
-527.6616
0
LINE
8
0
10
111.266495
20
-153.14511
30
-338.3638
11
-180.0329
21
-58.49625
31
-527.6616
0
LINE
8
0
10
180.03291
20
-58.4962
30
-527.6616
11
-4.9591064E-5
21
189.29779
31
-338.3638
0
LINE
8
0
10
-180.0329
20
-58.49625
30
-527.6616
11
3.8146973E-6
21
-7.6293945E-6
31
-221.37132
0
LINE
8
0
10
-4.9591064E-5
20
189.29779
30
-338.3638
11
-3.8146973E-6
21
7.6293945E-6
31
-644.65405
0
LINE
8
0
10
3.8146973E-6
20
-7.6293945E-6
30
-221.37132
11
4.9591064E-5
21
-189.29779
31
-527.6616
0
LINE
8
0
10
-3.8146973E-6
20
7.6293945E-6
30
-644.65405
11
180.0329
21
58.49625
31
-338.3638
0
LINE
8
0
10
4.9591064E-5
20
-189.29779
30
-527.6616
11
-180.03291
21
58.4962
31
-338.3638
0
LINE
8
0
10
180.0329
20
58.49625
30
-338.3638
11
-111.266495
21
153.14511
31
-527.66156
0
LINE
8
0
10
-111.26642
20
-153.14514
30
-338.3638
11
180.0329
21
58.496277
31
-338.3638
0
LINE
8
0
10
-180.0329
20
-58.496277
30
-527.66156
11
111.26642
21
153.14514
31
-527.6616
0
LINE
8
0
10
180.0329
20
58.496277
30
-338.3638
11
1.9073486E-5
21
-189.29779
31
-527.6616
0
LINE
8
0
10
111.26642
20
153.14514
30
-527.6616
11
-180.0329
21
58.496178
31
-338.3638
0
LINE
8
0
10
1.9073486E-5
20
-189.29779
30
-527.6616
11
7.6293945E-6
21
7.6293945E-6
31
-221.37132
0
LINE
8
0
10
-180.0329
20
58.496178
30
-338.3638
11
-7.6293945E-6
21
-7.6293945E-6
31
-644.65405
0
LINE
8
0
10
7.6293945E-6
20
7.6293945E-6
30
-221.37132
11
180.0329
21
-58.496178
31
-527.6616
0
LINE
8
0
10
-7.6293945E-6
20
-7.6293945E-6
30
-644.65405
11
-1.9073486E-5
21
189.29779
31
-338.3638
0
LINE
8
0
10
180.0329
20
-58.496178
30
-527.6616
11
-111.26642
21
-153.14514
31
-338.3638
0
LINE
8
0
10
-1.9073486E-5
20
189.29779
30
-338.3638
11
-180.0329
21
-58.496277
31
-527.66156
0
LINE
8
0
10
111.26648
20
-153.14511
30
-338.3638
11
-3.8146973E-5
21
189.29779
31
-338.3638
0
LINE
8
0
10
3.8146973E-5
20
-189.29779
30
-527.66156
11
-111.26648
21
153.14511
31
-527.6616
0
LINE
8
0
10
-3.8146973E-5
20
189.29779
30
-338.3638
11
180.0329
21
-58.496216
31
-527.6616
0
LINE
8
0
10
-111.26648
20
153.14511
30
-527.6616
11
-111.2664
21
-153.14516
31
-338.3638
0
LINE
8
0
10
180.0329
20
-58.496216
30
-527.6616
11
0.0
21
1.1444092E-5
31
-221.37132
0
LINE
8
0
10
-111.2664
20
-153.14516
30
-338.3638
11
0.0
21
-1.1444092E-5
31
-644.65405
0
LINE
8
0
10
0.0
20
1.1444092E-5
30
-221.37132
11
111.2664
21
153.14516
31
-527.6616
0
LINE
8
0
10
0.0
20
-1.1444092E-5
30
-644.65405
11
-180.0329
21
58.496216
31
-338.3638
0
LINE
8
0
10
111.2664
20
153.14516
30
-527.6616
11
111.26648
21
-153.14511
31
-338.3638
0
LINE
8
0
10
-180.0329
20
58.496216
30
-338.3638
11
3.8146973E-5
21
-189.29779
31
-527.66156
0
ENDSEC
0
EOF
