0
SECTION
2
ENTITIES
0
LINE
8
0
10
43.709312
20
89.97182
30
-246.50095
11
76.88271
21
96.486755
31
-604.97614
0
LINE
8
0
10
-76.88271
20
-96.486755
30
-261.04926
11
-43.709312
21
-89.97182
31
-619.5244
0
LINE
8
0
10
76.88271
20
96.486755
30
-604.97614
11
140.14355
21
-100.22762
31
-310.10513
0
LINE
8
0
10
-43.709312
20
-89.97182
30
-619.5244
11
-160.64584
21
96.201164
31
-334.3704
0
LINE
8
0
10
140.14355
20
-100.22762
30
-310.10513
11
4.6119537
21
211.548
31
-428.74124
0
LINE
8
0
10
-160.64584
20
96.201164
30
-334.3704
11
-4.6119537
21
-211.548
31
-437.28415
0
LINE
8
0
10
4.6119537
20
211.548
30
-428.74124
11
160.64584
21
-96.201164
31
-531.655
0
LINE
8
0
10
-4.6119537
20
-211.548
30
-437.28415
11
-140.14355
21
100.22762
31
-555.9202
0
LINE
8
0
10
160.64584
20
-96.201164
30
-531.655
11
43.709312
21
89.97182
31
-246.50095
0
LINE
8
0
10
-140.14355
20
100.22762
30
-555.9202
11
-76.88271
21
-96.486755
31
-261.04926
0
LINE
8
0
10
76.88272
20
96.48676
30
-604.97614
11
43.70932
21
89.9718
31
-246.50093
0
LINE
8
0
10
-43.70932
20
-89.9718
30
-619.5245
11
-76.88272
21
-96.48676
31
-261.04926
0
LINE
8
0
10
43.70932
20
89.9718
30
-246.50093
11
-140.14359
21
100.22763
31
-555.9202
0
LINE
8
0
10
-76.88272
20
-96.48676
30
-261.04926
11
160.64587
21
-96.20116
31
-531.655
0
LINE
8
0
10
-140.14359
20
100.22763
30
-555.9202
11
190.51007
21
90.14831
31
-413.74448
0
LINE
8
0
10
160.64587
20
-96.20116
30
-531.655
11
-190.51007
21
-90.14831
31
-452.2809
0
LINE
8
0
10
190.51007
20
90.14831
30
-413.74448
11
-160.64587
21
96.20116
31
-334.37036
0
LINE
8
0
10
-190.51007
20
-90.14831
30
-452.2809
11
140.14359
21
-100.22763
31
-310.10516
0
LINE
8
0
10
-160.64587
20
96.20116
30
-334.37036
11
76.88272
21
96.48676
31
-604.97614
0
LINE
8
0
10
140.14359
20
-100.22763
30
-310.10516
11
-43.70932
21
-89.9718
31
-619.5245
0
LINE
8
0
10
4.6119633
20
211.548
30
-428.7412
11
140.14359
21
-100.22766
31
-310.10516
0
LINE
8
0
10
-140.14359
20
100.22766
30
-555.9202
11
-4.6119633
21
-211.548
31
-437.28418
0
LINE
8
0
10
140.14359
20
-100.22766
30
-310.10516
11
-160.64587
21
96.20119
31
-334.37042
0
LINE
8
0
10
-4.6119633
20
-211.548
30
-437.28418
11
76.88272
21
96.486786
31
-604.9761
0
LINE
8
0
10
-160.64587
20
96.20119
30
-334.37042
11
190.51007
21
90.1483
31
-413.74448
0
LINE
8
0
10
76.88272
20
96.486786
30
-604.9761
11
-190.51007
21
-90.1483
31
-452.2809
0
LINE
8
0
10
190.51007
20
90.1483
30
-413.74448
11
-76.88272
21
-96.486786
31
-261.0493
0
LINE
8
0
10
-190.51007
20
-90.1483
30
-452.2809
11
160.64587
21
-96.20119
31
-531.65497
0
LINE
8
0
10
-76.88272
20
-96.486786
30
-261.0493
11
4.6119633
21
211.548
31
-428.7412
0
LINE
8
0
10
160.64587
20
-96.20119
30
-531.65497
11
-140.14359
21
100.22766
31
-555.9202
0
LINE
8
0
10
43.70933
20
89.97178
30
-246.50092
11
160.64586
21
-96.20117
31
-531.655
0
LINE
8
0
10
-160.64586
20
96.20117
30
-334.37036
11
-43.70933
21
-89.97178
31
-619.5245
0
LINE
8
0
10
160.64586
20
-96.20117
30
-531.655
11
-76.88272
21
-96.486755
31
-261.04926
0
LINE
8
0
10
-43.70933
20
-89.97178
30
-619.5245
11
4.611969
21
211.54797
31
-428.74115
0
LINE
8
0
10
-76.88272
20
-96.486755
30
-261.04926
11
190.51007
21
90.14829
31
-413.74448
0
LINE
8
0
10
4.611969
20
211.54797
30
-428.74115
11
-190.51007
21
-90.14829
31
-452.2809
0
LINE
8
0
10
190.51007
20
90.14829
30
-413.74448
11
-4.611969
21
-211.54797
31
-437.28424
0
LINE
8
0
10
-190.51007
20
-90.14829
30
-452.2809
11
76.88272
21
96.486755
31
-604.97614
0
LINE
8
0
10
-4.611969
20
-211.54797
30
-437.28424
11
43.70933
21
89.97178
31
-246.50092
0
LINE
8
0
10
76.88272
20
96.486755
30
-604.97614
11
-160.64586
21
96.20117
31
-334.37036
0
LINE
8
0
10
140.1436
20
-100.227646
30
-310.10516
11
76.88269
21
96.48677
31
-604.97614
0
LINE
8
0
10
-76.88269
20
-96.48677
30
-261.04926
11
-140.1436
21
100.227646
31
-555.9202
0
LINE
8
0
10
76.88269
20
96.48677
30
-604.97614
11
-4.6119537
21
-211.54799
31
-437.28418
0
LINE
8
0
10
-140.1436
20
100.227646
30
-555.9202
11
43.70935
21
89.97177
31
-246.50092
0
LINE
8
0
10
-4.6119537
20
-211.54799
30
-437.28418
11
190.51007
21
90.148315
31
-413.74448
0
LINE
8
0
10
43.70935
20
89.97177
30
-246.50092
11
-190.51007
21
-90.148315
31
-452.2809
0
LINE
8
0
10
190.51007
20
90.148315
30
-413.74448
11
-43.70935
21
-89.97177
31
-619.5245
0
LINE
8
0
10
-190.51007
20
-90.148315
30
-452.2809
11
4.6119537
21
211.54799
31
-428.7412
0
LINE
8
0
10
-43.70935
20
-89.97177
30
-619.5245
11
140.1436
21
-100.227646
31
-310.10516
0
LINE
8
0
10
4.6119537
20
211.54799
30
-428.7412
11
-76.88269
21
-96.48677
31
-261.04926
0
LINE
8
0
10
160.64587
20
-96.20116
30
-531.655
11
4.611946
21
211.54799
31
-428.74118
0
LINE
8
0
10
-4.611946
20
-211.54799
30
-437.2842
11
-160.64587
21
96.20116
31
-334.37036
0
LINE
8
0
10
4.611946
20
211.54799
30
-428.74118
11
-43.70932
21
-89.9718
31
-619.5244
0
LINE
8
0
10
-160.64587
20
96.20116
30
-334.37036
11
140.1436
21
-100.227646
31
-310.10522
0
LINE
8
0
10
-43.70932
20
-89.9718
30
-619.5244
11
190.51007
21
90.148315
31
-413.74448
0
LINE
8
0
10
140.1436
20
-100.227646
30
-310.10522
11
-190.51007
21
-90.148315
31
-452.2809
0
LINE
8
0
10
190.51007
20
90.148315
30
-413.74448
11
-140.1436
21
100.227646
31
-555.92017
0
LINE
8
0
10
-190.51007
20
-90.148315
30
-452.2809
11
43.70932
21
89.9718
31
-246.50096
0
LINE
8
0
10
-140.1436
20
100.227646
30
-555.92017
11
160.64587
21
-96.20116
31
-531.655
0
LINE
8
0
10
43.70932
20
89.9718
30
-246.50096
11
-4.611946
21
-211.54799
31
-437.2842
0
ENDSEC
0
EOF
